<?xml version="1.0" encoding="UTF-8" standalone="no"?>
<svg width="100px" height="100px" viewBox="0 0 100 100" version="1.1" xmlns="http://www.w3.org/2000/svg" xmlns:xlink="http://www.w3.org/1999/xlink" xmlns:sketch="http://www.bohemiancoding.com/sketch/ns">
    <!-- Generator: Sketch 3.2.2 (9983) - http://www.bohemiancoding.com/sketch -->
    <title>Artboard 7</title>
    <desc>Created with Sketch.</desc>
    <defs></defs>
    <g id="Page-1" stroke="none" stroke-width="1" fill="none" fill-rule="evenodd" sketch:type="MSPage">
        <g id="Artboard-7" sketch:type="MSArtboardGroup" fill="#9BD2F5">
            <g id="Your_Icon" sketch:type="MSLayerGroup" transform="translate(3.000000, 15.000000)">
                <path d="M19.8987,22.173375 C26.00435,22.173375 30.9548,16.256625 30.9548,10.633 C30.9548,5.009375 26.0053,0.450625 19.8987,0.450625 C13.794,0.450625 8.84355,5.009375 8.84355,10.633 C8.84355,16.256625 13.794,22.173375 19.8987,22.173375 L19.8987,22.173375 Z" id="Shape" sketch:type="MSShapeGroup"></path>
                <path d="M74.94455,22.173375 C81.04925,22.173375 85.9997,16.256625 85.9997,10.633 C85.9997,5.009375 81.04925,0.450625 74.94455,0.450625 C68.83795,0.450625 63.88845,5.009375 63.88845,10.633 C63.88845,16.256625 68.83795,22.173375 74.94455,22.173375 L74.94455,22.173375 Z" id="Shape" sketch:type="MSShapeGroup"></path>
                <path d="M33.35925,23.736125 C33.35925,16.543625 39.691,10.712625 47.5,10.712625 C55.30995,10.712625 61.64075,16.543625 61.64075,23.736125 C61.64075,30.9295 55.30995,38.497375 47.5,38.497375 C39.691,38.497375 33.35925,30.9295 33.35925,23.736125 L33.35925,23.736125 Z" id="Shape" sketch:type="MSShapeGroup"></path>
                <path d="M80.21895,23.73 C78.6068,24.458875 76.83505,24.8885 74.9436,24.8885 C73.00465,24.8885 71.18825,24.4405 69.5419,23.6775 C68.0941,23.76675 66.709,23.98725 65.3942,24.306625 C65.21275,28.9975 62.81305,33.917625 58.9988,37.370375 C60.2737,37.611875 61.5125,37.916375 62.7,38.289125 L62.7,35.875 C62.7,35.392 63.1256,35 63.65,35 C64.1744,35 64.6,35.392 64.6,35.875 L64.6,38.95325 C68.9586,40.64725 72.5287,43.227625 74.8296,46.375 L78.03585,46.375 C79.93015,46.375 81.7,46.157125 83.6,45.772125 L83.6,35.875 C83.6,35.392 84.0256,35 84.55,35 C85.0744,35 85.5,35.392 85.5,35.875 L85.5,45.247125 C91.2,43.428 94.9221,39.573625 94.9221,35.000875 C94.9221,29.136625 88.46685,24.444875 80.21895,23.73 L80.21895,23.73 Z" id="Shape" sketch:type="MSShapeGroup"></path>
                <path d="M55.99965,39.5885 C53.50115,41.073375 50.6217,41.97025 47.5,41.97025 C44.4486,41.97025 41.629,41.11275 39.16945,39.687375 C29.3949,41.097 22.0476,47.1275 22.0476,54.25 C22.0476,59.570875 26.1497,64.281875 32.3,66.913 L32.3,56 C32.3,55.2755 32.93745,54.6875 33.725,54.6875 C34.51255,54.6875 35.15,55.2755 35.15,56 L35.15,67.9385 C37.72925,68.7015 40.56595,69.125 43.54515,69.125 L52.39725,69.125 C55.01735,69.125 57.52725,68.796875 59.85,68.198375 L59.85,56 C59.85,55.2755 60.4884,54.6875 61.275,54.6875 C62.0616,54.6875 62.7,55.2755 62.7,56 L62.7,67.2945 C69.36995,64.75525 73.8948,59.838625 73.8948,54.25 C73.8948,46.941125 66.15705,40.784625 55.99965,39.5885 L55.99965,39.5885 Z" id="Shape" sketch:type="MSShapeGroup"></path>
                <path d="M36.1722,37.520875 C32.26865,34.069875 29.80055,29.092 29.60485,24.341625 C28.24255,24.002125 26.80235,23.77025 25.29945,23.6775 C23.65405,24.4405 21.8367,24.8885 19.89775,24.8885 C18.00725,24.8885 16.2355,24.458 14.6224,23.73 C6.37545,24.444875 0,29.136625 0,35.000875 C0,39.573625 3.8836,43.428 9.5,45.247125 L9.5,35.875 C9.5,35.392 9.9256,35 10.45,35 C10.9744,35 11.4,35.392 11.4,35.875 L11.4,45.772125 C13.0986,46.157125 14.9131,46.375 16.8074,46.375 L21.11185,46.375 C23.24555,43.456875 26.467,41.024375 30.4,39.335625 L30.4,35.875 C30.4,35.392 30.8256,35 31.35,35 C31.8744,35 32.3,35.392 32.3,35.875 L32.3,38.6015 C33.5369,38.16925 34.83175,37.807 36.1722,37.520875 L36.1722,37.520875 Z" id="Shape" sketch:type="MSShapeGroup"></path>
            </g>
        </g>
    </g>
</svg>