<?xml version="1.0" encoding="UTF-8" standalone="no"?>
<svg width="100px" height="100px" viewBox="0 0 100 100" version="1.1" xmlns="http://www.w3.org/2000/svg" xmlns:xlink="http://www.w3.org/1999/xlink" xmlns:sketch="http://www.bohemiancoding.com/sketch/ns">
    <!-- Generator: Sketch 3.2.2 (9983) - http://www.bohemiancoding.com/sketch -->
    <title>Artboard 7</title>
    <desc>Created with Sketch.</desc>
    <defs></defs>
    <g id="Page-1" stroke="none" stroke-width="1" fill="none" fill-rule="evenodd" sketch:type="MSPage">
        <g id="Artboard-7" sketch:type="MSArtboardGroup" fill="#9BD2F5">
            <path d="M90.1550115,38.3326804 C85.1078448,33.1689707 78.3964823,30.3246208 71.2571017,30.3246208 C69.3113907,30.3246208 67.3991934,30.5430402 65.5434906,30.9553926 C64.2431582,28.8946102 62.7254653,26.9543012 60.9875393,25.1785414 C54.5720552,18.614205 46.0385037,15 36.9620299,15 C27.8874711,15 19.3548772,18.6132255 12.9374779,25.1785414 C1.75059711,36.6205854 -0.193198843,54.5221638 8.13448263,68.1484021 L5.15654893,80.25354 C4.95067892,81.0899983 5.18910512,81.9754296 5.78564939,82.5856327 C6.38123613,83.1968154 7.24684773,83.4387418 8.06554011,83.230117 L20.3449683,80.0694017 C25.4036255,82.9725192 31.1296845,84.5034141 36.9696902,84.5034141 C43.4052826,84.5034141 49.5641474,82.6767224 54.8928294,79.2760396 C59.5560246,82.9842727 65.2495274,85 71.2513565,85 C76.2113875,85 81.0115102,83.6170034 85.2026407,80.9871551 L94.0952678,83.2761516 C94.9120451,83.4877148 95.7776567,83.2428499 96.3732435,82.6326468 C96.9697877,82.0224436 97.2091715,81.1370124 97.0033015,80.3005541 L94.6793641,70.8399563 C100.408296,60.2108636 98.6129177,46.9832652 90.1550115,38.3326804 Z M51.3908309,76.2271315 C47.0647377,78.730451 42.1671469,80.0704225 37.0668905,80.0704225 C31.7409166,80.0704225 26.5273212,78.5883627 21.9908785,75.7831055 C21.6134019,75.552212 21.1850188,75.4318317 20.7518332,75.4318317 C20.5549306,75.4318317 20.3580281,75.4564998 20.1649675,75.505836 L10.80009,77.9272574 L13.0611076,68.6964517 C13.2272742,68.0185721 13.1052907,67.2992501 12.7258931,66.7180695 C4.97369549,54.8379092 6.50281189,38.8648165 16.3613865,28.7380651 C21.890026,23.0574934 29.241695,19.9295775 37.060167,19.9295775 C44.8795996,19.9295775 52.2312686,23.0574934 57.7608685,28.7380651 C58.9403629,29.9507493 60.0007551,31.2532253 60.9497294,32.6237854 C61.8948617,33.9913852 62.7276154,35.4270691 63.4316621,36.9219563 C65.3286501,40.9497649 66.3333333,45.3959445 66.3333333,50.0019734 C66.3333333,58.0348958 63.2885475,65.5853101 57.7608685,71.2658818 C57.0116783,72.0335532 56.2259891,72.7518885 55.4153269,73.4258212 C54.1417036,74.4816162 52.7970032,75.4130839 51.3908309,76.2271315 Z M89.761114,71.9356244 L91.3602799,78.4507027 L85.3006387,76.8885095 C84.6352853,76.7152624 83.9313047,76.8409903 83.3625192,77.2340135 C79.7248032,79.7357007 75.4709834,81.056338 71.0636205,81.056338 C66.5732092,81.056338 62.2894533,79.6901614 58.6565657,77.1558049 C59.3605463,76.5420154 60.0500417,75.9014964 60.7115324,75.224348 C67.1835188,68.5904717 70.7478432,59.7687329 70.7478432,50.3856737 C70.7478432,45.3288404 69.7029776,40.4363442 67.7358877,35.960631 C68.830003,35.7913439 69.9415005,35.7042254 71.0684489,35.7042254 C76.9755126,35.7042254 82.5310689,38.0643449 86.7086,42.3470115 C93.9077433,49.728325 95.2761117,61.1200597 90.0334357,70.0536666 C89.7022075,70.616967 89.6037082,71.2951053 89.761114,71.9356244 L89.761114,71.9356244 Z" id="Shape" sketch:type="MSShapeGroup"></path>
            <path d="M50.0957749,45.3921215 C44.1878596,44.6287917 42.3102076,47.8694891 42.3102076,48.8243842 C42.3102076,49.7792793 40.178796,39.2105314 46.508796,36.7101341 C40.3899444,37.5435999 36.4512635,41.0162692 36.4512635,44.5586558 C36.4512635,37.8905109 37.2954331,31.9172349 41.8667112,29 C30.5433482,29.8336751 13.3818169,63.1737714 32.7939019,66.0910063 C53.7917198,69.2467032 47.3529656,51.3834026 47.3529656,51.3834026 C47.3529656,51.3834026 46.5796028,47.2158644 50.0957749,45.3921215 L50.0957749,45.3921215 Z M34.8650762,63.3009977 C23.9534892,61.6867982 24.9580175,50.2916046 33.599268,46.7464789 C32.544321,49.7467687 31.5874341,53.107479 34.9896274,55.6334991 C34.9896274,53.6972393 37.2903006,50.5771512 40.7307352,50.1213434 C39.0297453,53.3876921 39.7114658,56.9334332 40.2158664,57.1281054 C41.3686598,57.573041 42.644509,58.1855711 46.0118792,54.0223767 C47.3223378,60.7378484 42.6096859,64.4470813 34.8650762,63.3009977 L34.8650762,63.3009977 Z" id="Shape-2" sketch:type="MSShapeGroup"></path>
        </g>
    </g>
</svg>