<?xml version="1.0" encoding="UTF-8" standalone="no"?>
<svg width="96px" height="75px" viewBox="0 0 96 75" version="1.1" xmlns="http://www.w3.org/2000/svg" xmlns:xlink="http://www.w3.org/1999/xlink" xmlns:sketch="http://www.bohemiancoding.com/sketch/ns">
    <!-- Generator: Sketch 3.2.2 (9983) - http://www.bohemiancoding.com/sketch -->
    <title>Group</title>
    <desc>Created with Sketch.</desc>
    <defs></defs>
    <g id="Page-1" stroke="none" stroke-width="1" fill="none" fill-rule="evenodd" sketch:type="MSPage">
        <g id="ClassFlow-Landing---Featured-conversations" sketch:type="MSArtboardGroup" transform="translate(-840.000000, -559.000000)" fill="#9BD2F5">
            <g id="Callouts" sketch:type="MSLayerGroup" transform="translate(45.000000, 554.000000)">
                <g id="Group" sketch:type="MSShapeGroup">
                    <g id="Stay-up-to-date" transform="translate(751.407839, 5.000000)">
                        <g id="View-the-latest-Clas-+-Stay-up-to-date-+-icon_7439">
                            <g id="View-the-latest-Clas-+-STAY-UP-TO-DATE-+-icon_7439">
                                <g id="icon_7439" transform="translate(44.000000, 0.000000)">
                                    <g id="Group">
                                        <path d="M94.3420712,50.9585658 C94.9440501,52.5351489 94.1637453,54.3156367 92.5990125,54.9368104 L92.2361759,55.0829071 C90.6704123,55.7030298 88.9139534,54.929453 88.3119745,53.353921 L71.1122832,8.33616832 C70.5103043,6.76168737 71.2906091,4.98014852 72.8553419,4.35897479 L73.2192093,4.21498021 C74.7839421,3.59275542 76.540401,4.36738323 77.1423799,5.94291524 L94.3420712,50.9585658 L94.3420712,50.9585658 Z" id="Shape"></path>
                                        <path d="M9.05207448,66.5890574 C9.63561494,68.1906402 8.8782114,70.0017758 7.36240512,70.6336419 L7.00968289,70.7811843 C5.49287739,71.4141195 3.79121747,70.6272271 3.20767702,69.023506 L0.197047928,60.7547202 C-0.386492526,59.1531374 0.369911795,57.3420018 1.88671729,56.7101357 L2.23943952,56.5625933 C3.75724423,55.9296581 5.45890415,56.7165506 6.0424446,58.3181333 L9.05207448,66.5890574 L9.05207448,66.5890574 Z" id="Shape"></path>
                                        <path d="M86.324011,54.3629484 C86.3178142,54.3483656 86.308519,54.3358661 86.303355,54.3223249 L68.8862156,9.234375 C60.8995731,15.2726979 13.9371238,50.6870399 9.8017925,53.8900489 C8.20405089,55.1275041 7.67009328,55.6670679 8.89086289,58.82737 C9.1315053,59.4492225 8.89086289,58.82737 11.5441261,65.6979545 C12.0512309,67.0114485 14.1767334,66.2177273 13.6737597,64.9167328 C13.4393141,64.312588 13.4382813,63.7188595 14.6600838,63.5594903 C14.9492678,63.5230333 19.3128478,62.9615953 25.8215535,62.1251672 L27.2313255,65.7729517 C28.2083543,68.3030684 31.0340951,69.5551064 33.5417336,68.5697254 L40.3189673,65.9062802 C42.7109321,64.966731 43.9451281,62.3282849 43.2056433,59.8929564 C59.2450275,57.8315728 77.7218197,55.4608253 86.324011,54.3629484 L86.324011,54.3629484 Z M15.0152266,57.3069231 C14.5184237,57.5028211 13.9329795,57.3506876 13.6000597,56.8942871 C13.1991129,56.3493157 13.3114605,55.5792701 13.8494919,55.1760121 L64.8583754,16.8060671 C65.3943454,16.4007251 66.1591333,16.5122202 66.5580187,17.0592756 C66.9589655,17.603205 66.8466179,18.3742926 66.3075558,18.7785926 L15.3007337,57.1474956 C15.2110618,57.2152262 15.1152057,57.2683688 15.0152266,57.3069231 L15.0152266,57.3069231 Z M39.9168107,60.7606482 C40.3917154,62.0333371 39.7882953,63.4641955 38.569407,63.9607013 L31.9719477,66.643299 C30.7520553,67.1387573 29.3785469,66.5092215 28.9046463,65.2365326 L27.7470035,62.1370377 C31.3474432,61.6583391 35.4679686,61.1115542 39.8314685,60.53125 L39.9168107,60.7606482 L39.9168107,60.7606482 Z" id="Shape"></path>
                                    </g>
                                </g>
                            </g>
                        </g>
                    </g>
                </g>
            </g>
        </g>
    </g>
</svg>